<svg id="Layer_3" data-name="Layer 3" xmlns="http://www.w3.org/2000/svg" xmlns:xlink="http://www.w3.org/1999/xlink" viewBox="0 0 1920 1080"><defs><style>.cls-1,.cls-2{fill:none;stroke:#fff;stroke-miterlimit:10;}.cls-1{stroke-width:2px;stroke-dasharray:12;}.cls-2{stroke-width:2.54px;}.cls-3{font-size:11.81px;fill:#fff;font-family:RobotoMono-Bold, Roboto Mono;font-weight:700;}.cls-4{clip-path:url(#clip-path);}</style><clipPath id="clip-path"><polygon class="cls-1" points="1698.69 498.46 1657.08 420.75 1657.08 255.43 1642.82 221.41 1582.69 189.31 1582.69 118.36 1547.27 118.36 1574.3 99.78 1562.47 76.12 1520.24 50.69 1698.69 50.69 1698.69 498.46"/></clipPath></defs><rect class="cls-2" x="221.31" y="50.69" width="1477.38" height="841.32"/><rect class="cls-2" x="197.68" y="28.99" width="1524.64" height="884.72"/><rect class="cls-2" x="916.34" y="913.71" width="87.33" height="95.31"/><line class="cls-2" x1="916.34" y1="967.5" x2="587.07" y2="988.98"/><polyline class="cls-2" points="916.34 988.98 507.57 1026.2 487.05 1036.7 491.35 1051.01 542.41 1051.01 550.04 1045.76 916.34 1009.02 494.02 1043.38"/><rect class="cls-2" x="1582.69" y="899.74" width="60.13" height="13.96" rx="6.98"/><polygon class="cls-2" points="564.84 988.98 591.08 975.62 916.34 955.57 916.34 988.98 573.9 998.04 564.84 988.98"/><line class="cls-2" x1="1003.66" y1="967.5" x2="1332.93" y2="988.98"/><polyline class="cls-2" points="1003.66 988.98 1412.43 1026.2 1432.95 1036.7 1428.65 1051.01 1377.59 1051.01 1369.96 1045.76 1003.66 1009.02 1425.98 1043.38"/><polygon class="cls-2" points="1355.16 988.98 1328.92 975.62 1003.66 955.57 1003.66 988.98 1346.1 998.04 1355.16 988.98"/><text class="cls-3" transform="translate(937.2 907.99)">SAMSUNG</text><g class="cls-4"><line class="cls-1" x1="1487.78" y1="-20.17" x2="1487.78" y2="591.38"/><line class="cls-1" x1="1499.73" y1="-20.17" x2="1499.73" y2="591.38"/><line class="cls-1" x1="1511.69" y1="-20.17" x2="1511.69" y2="591.38"/><line class="cls-1" x1="1523.64" y1="-20.17" x2="1523.64" y2="591.38"/><line class="cls-1" x1="1535.6" y1="-20.17" x2="1535.6" y2="591.38"/><line class="cls-1" x1="1547.55" y1="-20.17" x2="1547.55" y2="591.38"/><line class="cls-1" x1="1559.51" y1="-20.17" x2="1559.51" y2="591.38"/><line class="cls-1" x1="1571.46" y1="-20.17" x2="1571.46" y2="591.38"/><line class="cls-1" x1="1583.41" y1="-20.17" x2="1583.41" y2="591.38"/><line class="cls-1" x1="1595.37" y1="-20.17" x2="1595.37" y2="591.38"/><line class="cls-1" x1="1607.32" y1="-20.17" x2="1607.32" y2="591.38"/><line class="cls-1" x1="1619.28" y1="-20.17" x2="1619.28" y2="591.38"/><line class="cls-1" x1="1631.23" y1="-20.17" x2="1631.23" y2="591.38"/><line class="cls-1" x1="1643.18" y1="-20.17" x2="1643.18" y2="591.38"/><line class="cls-1" x1="1655.14" y1="-20.17" x2="1655.14" y2="591.38"/><line class="cls-1" x1="1667.09" y1="-20.17" x2="1667.09" y2="591.38"/><line class="cls-1" x1="1679.05" y1="-20.17" x2="1679.05" y2="591.38"/><line class="cls-1" x1="1691" y1="-20.17" x2="1691" y2="591.38"/><line class="cls-1" x1="1702.96" y1="-20.17" x2="1702.96" y2="591.38"/><line class="cls-1" x1="1714.91" y1="-20.17" x2="1714.91" y2="591.38"/><line class="cls-1" x1="1726.86" y1="-20.17" x2="1726.86" y2="591.38"/><line class="cls-1" x1="1738.82" y1="-20.17" x2="1738.82" y2="591.38"/><line class="cls-1" x1="1750.77" y1="-20.17" x2="1750.77" y2="591.38"/><line class="cls-1" x1="1762.73" y1="-20.17" x2="1762.73" y2="591.38"/><line class="cls-1" x1="1774.68" y1="-20.17" x2="1774.68" y2="591.38"/><line class="cls-1" x1="1786.64" y1="-20.17" x2="1786.64" y2="591.38"/><line class="cls-1" x1="1798.59" y1="-20.17" x2="1798.59" y2="591.38"/></g><polygon class="cls-1" points="1698.69 498.46 1657.08 420.75 1657.08 255.43 1642.82 221.41 1582.69 189.31 1582.69 118.36 1547.27 118.36 1574.3 99.78 1562.47 76.12 1520.24 50.69 1698.69 50.69 1698.69 498.46"/></svg>