<svg id="Layer_3" data-name="Layer 3" xmlns="http://www.w3.org/2000/svg" xmlns:xlink="http://www.w3.org/1999/xlink" viewBox="0 0 1920 1080"><defs><style>.cls-1,.cls-3,.cls-4{fill:none;}.cls-2{clip-path:url(#clip-path);}.cls-3,.cls-4{stroke:#fff;stroke-miterlimit:10;}.cls-3{stroke-width:0.25px;}.cls-4{stroke-width:2.77px;}</style><clipPath id="clip-path"><rect class="cls-1" x="414.04" y="177.04" width="1080.22" height="717.19" rx="15.63"/></clipPath></defs><g class="cls-2"><rect class="cls-3" x="396.1" y="160.95" width="1120.62" height="755.92"/><line class="cls-3" x1="396.1" y1="900.79" x2="1516.72" y2="900.79"/><line class="cls-3" x1="396.1" y1="884.71" x2="1516.72" y2="884.71"/><line class="cls-3" x1="396.1" y1="868.62" x2="1516.72" y2="868.62"/><line class="cls-3" x1="396.1" y1="852.54" x2="1516.72" y2="852.54"/><line class="cls-3" x1="396.1" y1="836.46" x2="1516.72" y2="836.46"/><line class="cls-3" x1="396.1" y1="820.37" x2="1516.72" y2="820.37"/><line class="cls-3" x1="396.1" y1="804.29" x2="1516.72" y2="804.29"/><line class="cls-3" x1="396.1" y1="788.21" x2="1516.72" y2="788.21"/><line class="cls-3" x1="396.1" y1="772.12" x2="1516.72" y2="772.12"/><line class="cls-3" x1="396.1" y1="756.04" x2="1516.72" y2="756.04"/><line class="cls-3" x1="396.1" y1="739.96" x2="1516.72" y2="739.96"/><line class="cls-3" x1="396.1" y1="723.87" x2="1516.72" y2="723.87"/><line class="cls-3" x1="396.1" y1="707.79" x2="1516.72" y2="707.79"/><line class="cls-3" x1="396.1" y1="691.7" x2="1516.72" y2="691.7"/><line class="cls-3" x1="396.1" y1="675.62" x2="1516.72" y2="675.62"/><line class="cls-3" x1="396.1" y1="659.54" x2="1516.72" y2="659.54"/><line class="cls-3" x1="396.1" y1="643.45" x2="1516.72" y2="643.45"/><line class="cls-3" x1="396.1" y1="627.37" x2="1516.72" y2="627.37"/><line class="cls-3" x1="396.1" y1="611.29" x2="1516.72" y2="611.29"/><line class="cls-3" x1="396.1" y1="595.2" x2="1516.72" y2="595.2"/><line class="cls-3" x1="396.1" y1="579.12" x2="1516.72" y2="579.12"/><line class="cls-3" x1="396.1" y1="563.04" x2="1516.72" y2="563.04"/><line class="cls-3" x1="396.1" y1="546.95" x2="1516.72" y2="546.95"/><line class="cls-3" x1="396.1" y1="530.87" x2="1516.72" y2="530.87"/><line class="cls-3" x1="396.1" y1="514.79" x2="1516.72" y2="514.79"/><line class="cls-3" x1="396.1" y1="498.7" x2="1516.72" y2="498.7"/><line class="cls-3" x1="396.1" y1="482.62" x2="1516.72" y2="482.62"/><line class="cls-3" x1="396.1" y1="466.54" x2="1516.72" y2="466.54"/><line class="cls-3" x1="396.1" y1="450.45" x2="1516.72" y2="450.45"/><line class="cls-3" x1="396.1" y1="434.37" x2="1516.72" y2="434.37"/><line class="cls-3" x1="396.1" y1="418.29" x2="1516.72" y2="418.29"/><line class="cls-3" x1="396.1" y1="402.2" x2="1516.72" y2="402.2"/><line class="cls-3" x1="396.1" y1="386.12" x2="1516.72" y2="386.12"/><line class="cls-3" x1="396.1" y1="370.04" x2="1516.72" y2="370.04"/><line class="cls-3" x1="396.1" y1="353.95" x2="1516.72" y2="353.95"/><line class="cls-3" x1="396.1" y1="337.87" x2="1516.72" y2="337.87"/><line class="cls-3" x1="396.1" y1="321.79" x2="1516.72" y2="321.79"/><line class="cls-3" x1="396.1" y1="305.7" x2="1516.72" y2="305.7"/><line class="cls-3" x1="396.1" y1="289.62" x2="1516.72" y2="289.62"/><line class="cls-3" x1="396.1" y1="273.54" x2="1516.72" y2="273.54"/><line class="cls-3" x1="396.1" y1="257.45" x2="1516.72" y2="257.45"/><line class="cls-3" x1="396.1" y1="241.37" x2="1516.72" y2="241.37"/><line class="cls-3" x1="396.1" y1="225.29" x2="1516.72" y2="225.29"/><line class="cls-3" x1="396.1" y1="209.2" x2="1516.72" y2="209.2"/><line class="cls-3" x1="396.1" y1="193.12" x2="1516.72" y2="193.12"/><line class="cls-3" x1="396.1" y1="177.04" x2="1516.72" y2="177.04"/><line class="cls-3" x1="1496.71" y1="160.95" x2="1496.71" y2="916.87"/><line class="cls-3" x1="1476.7" y1="160.95" x2="1476.7" y2="916.87"/><line class="cls-3" x1="1456.69" y1="160.95" x2="1456.69" y2="916.87"/><line class="cls-3" x1="1436.68" y1="160.95" x2="1436.68" y2="916.87"/><line class="cls-3" x1="1416.67" y1="160.95" x2="1416.67" y2="916.87"/><line class="cls-3" x1="1396.66" y1="160.95" x2="1396.66" y2="916.87"/><line class="cls-3" x1="1376.64" y1="160.95" x2="1376.64" y2="916.87"/><line class="cls-3" x1="1356.63" y1="160.95" x2="1356.63" y2="916.87"/><line class="cls-3" x1="1336.62" y1="160.95" x2="1336.62" y2="916.87"/><line class="cls-3" x1="1316.61" y1="160.95" x2="1316.61" y2="916.87"/><line class="cls-3" x1="1296.6" y1="160.95" x2="1296.6" y2="916.87"/><line class="cls-3" x1="1276.59" y1="160.95" x2="1276.59" y2="916.87"/><line class="cls-3" x1="1256.58" y1="160.95" x2="1256.58" y2="916.87"/><line class="cls-3" x1="1236.57" y1="160.95" x2="1236.57" y2="916.87"/><line class="cls-3" x1="1216.56" y1="160.95" x2="1216.56" y2="916.87"/><line class="cls-3" x1="1196.54" y1="160.95" x2="1196.54" y2="916.87"/><line class="cls-3" x1="1176.53" y1="160.95" x2="1176.53" y2="916.87"/><line class="cls-3" x1="1156.52" y1="160.95" x2="1156.52" y2="916.87"/><line class="cls-3" x1="1136.51" y1="160.95" x2="1136.51" y2="916.87"/><line class="cls-3" x1="1116.5" y1="160.95" x2="1116.5" y2="916.87"/><line class="cls-3" x1="1096.49" y1="160.95" x2="1096.49" y2="916.87"/><line class="cls-3" x1="1076.48" y1="160.95" x2="1076.48" y2="916.87"/><line class="cls-3" x1="1056.47" y1="160.95" x2="1056.47" y2="916.87"/><line class="cls-3" x1="1036.46" y1="160.95" x2="1036.46" y2="916.87"/><line class="cls-3" x1="1016.45" y1="160.95" x2="1016.45" y2="916.87"/><line class="cls-3" x1="996.43" y1="160.95" x2="996.43" y2="916.87"/><line class="cls-3" x1="976.42" y1="160.95" x2="976.42" y2="916.87"/><line class="cls-3" x1="956.41" y1="160.95" x2="956.41" y2="916.87"/><line class="cls-3" x1="936.4" y1="160.95" x2="936.4" y2="916.87"/><line class="cls-3" x1="916.39" y1="160.95" x2="916.39" y2="916.87"/><line class="cls-3" x1="896.38" y1="160.95" x2="896.38" y2="916.87"/><line class="cls-3" x1="876.37" y1="160.95" x2="876.37" y2="916.87"/><line class="cls-3" x1="856.36" y1="160.95" x2="856.36" y2="916.87"/><line class="cls-3" x1="836.35" y1="160.95" x2="836.35" y2="916.87"/><line class="cls-3" x1="816.33" y1="160.95" x2="816.33" y2="916.87"/><line class="cls-3" x1="796.32" y1="160.95" x2="796.32" y2="916.87"/><line class="cls-3" x1="776.31" y1="160.95" x2="776.31" y2="916.87"/><line class="cls-3" x1="756.3" y1="160.95" x2="756.3" y2="916.87"/><line class="cls-3" x1="736.29" y1="160.95" x2="736.29" y2="916.87"/><line class="cls-3" x1="716.28" y1="160.95" x2="716.28" y2="916.87"/><line class="cls-3" x1="696.27" y1="160.95" x2="696.27" y2="916.87"/><line class="cls-3" x1="676.26" y1="160.95" x2="676.26" y2="916.87"/><line class="cls-3" x1="656.25" y1="160.95" x2="656.25" y2="916.87"/><line class="cls-3" x1="636.23" y1="160.95" x2="636.23" y2="916.87"/><line class="cls-3" x1="616.22" y1="160.95" x2="616.22" y2="916.87"/><line class="cls-3" x1="596.21" y1="160.95" x2="596.21" y2="916.87"/><line class="cls-3" x1="576.2" y1="160.95" x2="576.2" y2="916.87"/><line class="cls-3" x1="556.19" y1="160.95" x2="556.19" y2="916.87"/><line class="cls-3" x1="536.18" y1="160.95" x2="536.18" y2="916.87"/><line class="cls-3" x1="516.17" y1="160.95" x2="516.17" y2="916.87"/><line class="cls-3" x1="496.16" y1="160.95" x2="496.16" y2="916.87"/><line class="cls-3" x1="476.15" y1="160.95" x2="476.15" y2="916.87"/><line class="cls-3" x1="456.14" y1="160.95" x2="456.14" y2="916.87"/><line class="cls-3" x1="436.12" y1="160.95" x2="436.12" y2="916.87"/><line class="cls-3" x1="416.11" y1="160.95" x2="416.11" y2="916.87"/></g><rect class="cls-4" x="226.99" y="24.44" width="1466.01" height="1031.12" rx="42.79"/><rect class="cls-4" x="378.97" y="146.02" width="1152.7" height="787.95" rx="54.67"/><rect class="cls-4" x="414.04" y="178.76" width="1080.22" height="715.47" rx="17.22"/></svg>