<svg id="Layer_3" data-name="Layer 3" xmlns="http://www.w3.org/2000/svg" xmlns:xlink="http://www.w3.org/1999/xlink" viewBox="0 0 1920 1080"><defs><style>.cls-1,.cls-2,.cls-5{fill:none;stroke:#fff;stroke-miterlimit:10;}.cls-1,.cls-5{stroke-width:2px;}.cls-1{stroke-dasharray:12;}.cls-2{stroke-width:2.99px;}.cls-3{font-size:23.41px;fill:#fff;font-family:RobotoMono-Bold, Roboto Mono;font-weight:700;}.cls-4{clip-path:url(#clip-path);}.cls-5{stroke-dasharray:12.05 12.05;}</style><clipPath id="clip-path"><polygon class="cls-1" points="1787.56 998.04 1673.61 988.98 1548.59 955.57 1474.36 916.27 1416.82 946.14 1315.46 871.81 1222.55 756.93 1084.02 756.93 979.18 785.65 808.65 670.78 710.67 640.37 491.67 677.53 443.75 635.3 357.6 664.02 357.6 68.41 131.88 68.41 131.88 1011.59 1788.12 1011.59 1787.56 998.04"/></clipPath></defs><rect class="cls-2" x="131.88" y="68.41" width="1656.24" height="943.17"/><rect class="cls-2" x="90.16" y="30.48" width="1739.69" height="1019.03"/><circle class="cls-2" cx="1808.42" cy="831.91" r="10.4"/><circle class="cls-2" cx="1808.42" cy="889.07" r="10.4"/><circle class="cls-2" cx="1808.42" cy="916.27" r="10.4"/><line class="cls-2" x1="1537.3" y1="1036.17" x2="1537.3" y2="1049.52"/><line class="cls-2" x1="1565.95" y1="1036.17" x2="1565.95" y2="1049.52"/><line class="cls-2" x1="1594.61" y1="1036.17" x2="1594.61" y2="1049.52"/><line class="cls-2" x1="1623.27" y1="1036.17" x2="1623.27" y2="1049.52"/><line class="cls-2" x1="1651.93" y1="1036.17" x2="1651.93" y2="1049.52"/><line class="cls-2" x1="1680.59" y1="1036.17" x2="1680.59" y2="1049.52"/><line class="cls-2" x1="1709.24" y1="1036.17" x2="1709.24" y2="1049.52"/><line class="cls-2" x1="1737.9" y1="1036.17" x2="1737.9" y2="1049.52"/><line class="cls-2" x1="90.16" y1="937.27" x2="131.88" y2="937.27"/><line class="cls-2" x1="1787.56" y1="937.27" x2="1829.28" y2="937.27"/><line class="cls-2" x1="90.16" y1="150.59" x2="131.88" y2="150.59"/><line class="cls-2" x1="1787.56" y1="150.59" x2="1829.28" y2="150.59"/><line class="cls-2" x1="213.43" y1="30.48" x2="213.43" y2="68.41"/><line class="cls-2" x1="213.43" y1="1011.59" x2="213.43" y2="1049.52"/><line class="cls-2" x1="1705.42" y1="30.48" x2="1705.42" y2="68.41"/><line class="cls-2" x1="1705.42" y1="1011.59" x2="1705.42" y2="1049.52"/><text class="cls-3" transform="translate(938.02 1040.58)">NEC</text><g class="cls-4"><line class="cls-5" x1="29.86" y1="6.33" x2="29.86" y2="1157.11"/><line class="cls-5" x1="41.69" y1="6.33" x2="41.69" y2="1157.11"/><line class="cls-5" x1="53.51" y1="6.33" x2="53.51" y2="1157.11"/><line class="cls-5" x1="65.34" y1="6.33" x2="65.34" y2="1157.11"/><line class="cls-5" x1="77.16" y1="6.33" x2="77.16" y2="1157.11"/><line class="cls-5" x1="88.99" y1="6.33" x2="88.99" y2="1157.11"/><line class="cls-5" x1="100.81" y1="6.33" x2="100.81" y2="1157.11"/><line class="cls-5" x1="112.64" y1="6.33" x2="112.64" y2="1157.11"/><line class="cls-5" x1="124.47" y1="6.33" x2="124.47" y2="1157.11"/><line class="cls-5" x1="136.29" y1="6.33" x2="136.29" y2="1157.11"/><line class="cls-5" x1="148.12" y1="6.33" x2="148.12" y2="1157.11"/><line class="cls-5" x1="159.94" y1="6.33" x2="159.94" y2="1157.11"/><line class="cls-5" x1="171.77" y1="6.33" x2="171.77" y2="1157.11"/><line class="cls-5" x1="183.59" y1="6.33" x2="183.59" y2="1157.11"/><line class="cls-5" x1="195.42" y1="6.33" x2="195.42" y2="1157.11"/><line class="cls-5" x1="207.24" y1="6.33" x2="207.24" y2="1157.11"/><line class="cls-5" x1="219.07" y1="6.33" x2="219.07" y2="1157.11"/><line class="cls-5" x1="230.89" y1="6.33" x2="230.89" y2="1157.11"/><line class="cls-5" x1="242.72" y1="6.33" x2="242.72" y2="1157.11"/><line class="cls-5" x1="254.55" y1="6.33" x2="254.55" y2="1157.11"/><line class="cls-5" x1="266.37" y1="6.33" x2="266.37" y2="1157.11"/><line class="cls-5" x1="278.2" y1="6.33" x2="278.2" y2="1157.11"/><line class="cls-5" x1="290.02" y1="6.33" x2="290.02" y2="1157.11"/><line class="cls-5" x1="301.85" y1="6.33" x2="301.85" y2="1157.11"/><line class="cls-5" x1="313.67" y1="6.33" x2="313.67" y2="1157.11"/><line class="cls-5" x1="325.5" y1="6.33" x2="325.5" y2="1157.11"/><line class="cls-5" x1="337.32" y1="6.33" x2="337.32" y2="1157.11"/><line class="cls-5" x1="349.15" y1="6.33" x2="349.15" y2="1157.11"/><line class="cls-5" x1="360.98" y1="6.33" x2="360.98" y2="1157.11"/><line class="cls-5" x1="372.8" y1="6.33" x2="372.8" y2="1157.11"/><line class="cls-5" x1="384.63" y1="6.33" x2="384.63" y2="1157.11"/><line class="cls-5" x1="396.45" y1="6.33" x2="396.45" y2="1157.11"/><line class="cls-5" x1="408.28" y1="6.33" x2="408.28" y2="1157.11"/><line class="cls-5" x1="420.1" y1="6.33" x2="420.1" y2="1157.11"/><line class="cls-5" x1="431.93" y1="6.33" x2="431.93" y2="1157.11"/><line class="cls-5" x1="443.75" y1="6.33" x2="443.75" y2="1157.11"/><line class="cls-5" x1="455.58" y1="6.33" x2="455.58" y2="1157.11"/><line class="cls-5" x1="467.4" y1="6.33" x2="467.4" y2="1157.11"/><line class="cls-5" x1="479.23" y1="6.33" x2="479.23" y2="1157.11"/><line class="cls-5" x1="491.06" y1="6.33" x2="491.06" y2="1157.11"/><line class="cls-5" x1="502.88" y1="6.33" x2="502.88" y2="1157.11"/><line class="cls-5" x1="514.71" y1="6.33" x2="514.71" y2="1157.11"/><line class="cls-5" x1="526.53" y1="6.33" x2="526.53" y2="1157.11"/><line class="cls-5" x1="538.36" y1="6.33" x2="538.36" y2="1157.11"/><line class="cls-5" x1="550.18" y1="6.33" x2="550.18" y2="1157.11"/><line class="cls-5" x1="562.01" y1="6.33" x2="562.01" y2="1157.11"/><line class="cls-5" x1="573.83" y1="6.33" x2="573.83" y2="1157.11"/><line class="cls-5" x1="585.66" y1="6.33" x2="585.66" y2="1157.11"/><line class="cls-5" x1="597.49" y1="6.33" x2="597.49" y2="1157.11"/><line class="cls-5" x1="609.31" y1="6.33" x2="609.31" y2="1157.11"/><line class="cls-5" x1="621.14" y1="6.33" x2="621.14" y2="1157.11"/><line class="cls-5" x1="632.96" y1="6.33" x2="632.96" y2="1157.11"/><line class="cls-5" x1="644.79" y1="6.33" x2="644.79" y2="1157.11"/><line class="cls-5" x1="656.61" y1="6.33" x2="656.61" y2="1157.11"/><line class="cls-5" x1="668.44" y1="6.33" x2="668.44" y2="1157.11"/><line class="cls-5" x1="680.26" y1="6.33" x2="680.26" y2="1157.11"/><line class="cls-5" x1="692.09" y1="6.33" x2="692.09" y2="1157.11"/><line class="cls-5" x1="703.92" y1="6.33" x2="703.92" y2="1157.11"/><line class="cls-5" x1="715.74" y1="6.33" x2="715.74" y2="1157.11"/><line class="cls-5" x1="727.57" y1="6.33" x2="727.57" y2="1157.11"/><line class="cls-5" x1="739.39" y1="6.33" x2="739.39" y2="1157.11"/><line class="cls-5" x1="751.22" y1="6.33" x2="751.22" y2="1157.11"/><line class="cls-5" x1="763.04" y1="6.33" x2="763.04" y2="1157.11"/><line class="cls-5" x1="774.87" y1="6.33" x2="774.87" y2="1157.11"/><line class="cls-5" x1="786.69" y1="6.33" x2="786.69" y2="1157.11"/><line class="cls-5" x1="798.52" y1="6.33" x2="798.52" y2="1157.11"/><line class="cls-5" x1="810.34" y1="6.33" x2="810.34" y2="1157.11"/><line class="cls-5" x1="822.17" y1="6.33" x2="822.17" y2="1157.11"/><line class="cls-5" x1="834" y1="6.33" x2="834" y2="1157.11"/><line class="cls-5" x1="845.82" y1="6.33" x2="845.82" y2="1157.11"/><line class="cls-5" x1="857.65" y1="6.33" x2="857.65" y2="1157.11"/><line class="cls-5" x1="869.47" y1="6.33" x2="869.47" y2="1157.11"/><line class="cls-5" x1="881.3" y1="6.33" x2="881.3" y2="1157.11"/><line class="cls-5" x1="893.12" y1="6.33" x2="893.12" y2="1157.11"/><line class="cls-5" x1="904.95" y1="6.33" x2="904.95" y2="1157.11"/><line class="cls-5" x1="916.77" y1="6.33" x2="916.77" y2="1157.11"/><line class="cls-5" x1="928.6" y1="6.33" x2="928.6" y2="1157.11"/><line class="cls-5" x1="940.43" y1="6.33" x2="940.43" y2="1157.11"/><line class="cls-5" x1="952.25" y1="6.33" x2="952.25" y2="1157.11"/><line class="cls-5" x1="964.08" y1="6.33" x2="964.08" y2="1157.11"/><line class="cls-5" x1="975.9" y1="6.33" x2="975.9" y2="1157.11"/><line class="cls-5" x1="987.73" y1="6.33" x2="987.73" y2="1157.11"/><line class="cls-5" x1="999.55" y1="6.33" x2="999.55" y2="1157.11"/><line class="cls-5" x1="1011.38" y1="6.33" x2="1011.38" y2="1157.11"/><line class="cls-5" x1="1023.2" y1="6.33" x2="1023.2" y2="1157.11"/><line class="cls-5" x1="1035.03" y1="6.33" x2="1035.03" y2="1157.11"/><line class="cls-5" x1="1046.85" y1="6.33" x2="1046.85" y2="1157.11"/><line class="cls-5" x1="1058.68" y1="6.33" x2="1058.68" y2="1157.11"/><line class="cls-5" x1="1070.51" y1="6.33" x2="1070.51" y2="1157.11"/><line class="cls-5" x1="1082.33" y1="6.33" x2="1082.33" y2="1157.11"/><line class="cls-5" x1="1094.16" y1="6.33" x2="1094.16" y2="1157.11"/><line class="cls-5" x1="1105.98" y1="6.33" x2="1105.98" y2="1157.11"/><line class="cls-5" x1="1117.81" y1="6.33" x2="1117.81" y2="1157.11"/><line class="cls-5" x1="1129.63" y1="6.33" x2="1129.63" y2="1157.11"/><line class="cls-5" x1="1141.46" y1="6.33" x2="1141.46" y2="1157.11"/><line class="cls-5" x1="1153.28" y1="6.33" x2="1153.28" y2="1157.11"/><line class="cls-5" x1="1165.11" y1="6.33" x2="1165.11" y2="1157.11"/><line class="cls-5" x1="1176.94" y1="6.33" x2="1176.94" y2="1157.11"/><line class="cls-5" x1="1188.76" y1="6.33" x2="1188.76" y2="1157.11"/><line class="cls-5" x1="1200.59" y1="6.33" x2="1200.59" y2="1157.11"/><line class="cls-5" x1="1212.41" y1="6.33" x2="1212.41" y2="1157.11"/><line class="cls-5" x1="1224.24" y1="6.33" x2="1224.24" y2="1157.11"/><line class="cls-5" x1="1236.06" y1="6.33" x2="1236.06" y2="1157.11"/><line class="cls-5" x1="1247.89" y1="6.33" x2="1247.89" y2="1157.11"/><line class="cls-5" x1="1259.71" y1="6.33" x2="1259.71" y2="1157.11"/><line class="cls-5" x1="1271.54" y1="6.33" x2="1271.54" y2="1157.11"/><line class="cls-5" x1="1283.36" y1="6.33" x2="1283.36" y2="1157.11"/><line class="cls-5" x1="1295.19" y1="6.33" x2="1295.19" y2="1157.11"/><line class="cls-5" x1="1307.02" y1="6.33" x2="1307.02" y2="1157.11"/><line class="cls-5" x1="1318.84" y1="6.33" x2="1318.84" y2="1157.11"/><line class="cls-5" x1="1330.67" y1="6.33" x2="1330.67" y2="1157.11"/><line class="cls-5" x1="1342.49" y1="6.33" x2="1342.49" y2="1157.11"/><line class="cls-5" x1="1354.32" y1="6.33" x2="1354.32" y2="1157.11"/><line class="cls-5" x1="1366.14" y1="6.33" x2="1366.14" y2="1157.11"/><line class="cls-5" x1="1377.97" y1="6.33" x2="1377.97" y2="1157.11"/><line class="cls-5" x1="1389.79" y1="6.33" x2="1389.79" y2="1157.11"/><line class="cls-5" x1="1401.62" y1="6.33" x2="1401.62" y2="1157.11"/><line class="cls-5" x1="1413.45" y1="6.33" x2="1413.45" y2="1157.11"/><line class="cls-5" x1="1425.27" y1="6.33" x2="1425.27" y2="1157.11"/><line class="cls-5" x1="1437.1" y1="6.33" x2="1437.1" y2="1157.11"/><line class="cls-5" x1="1448.92" y1="6.33" x2="1448.92" y2="1157.11"/><line class="cls-5" x1="1460.75" y1="6.33" x2="1460.75" y2="1157.11"/><line class="cls-5" x1="1472.57" y1="6.33" x2="1472.57" y2="1157.11"/><line class="cls-5" x1="1484.4" y1="6.33" x2="1484.4" y2="1157.11"/><line class="cls-5" x1="1496.22" y1="6.33" x2="1496.22" y2="1157.11"/><line class="cls-5" x1="1508.05" y1="6.33" x2="1508.05" y2="1157.11"/><line class="cls-5" x1="1519.88" y1="6.33" x2="1519.88" y2="1157.11"/><line class="cls-5" x1="1531.7" y1="6.33" x2="1531.7" y2="1157.11"/><line class="cls-5" x1="1543.53" y1="6.33" x2="1543.53" y2="1157.11"/><line class="cls-5" x1="1555.35" y1="6.33" x2="1555.35" y2="1157.11"/><line class="cls-5" x1="1567.18" y1="6.33" x2="1567.18" y2="1157.11"/><line class="cls-5" x1="1579" y1="6.33" x2="1579" y2="1157.11"/><line class="cls-5" x1="1590.83" y1="6.33" x2="1590.83" y2="1157.11"/><line class="cls-5" x1="1602.65" y1="6.33" x2="1602.65" y2="1157.11"/><line class="cls-5" x1="1614.48" y1="6.33" x2="1614.48" y2="1157.11"/><line class="cls-5" x1="1626.3" y1="6.33" x2="1626.3" y2="1157.11"/><line class="cls-5" x1="1638.13" y1="6.33" x2="1638.13" y2="1157.11"/><line class="cls-5" x1="1649.96" y1="6.33" x2="1649.96" y2="1157.11"/><line class="cls-5" x1="1661.78" y1="6.33" x2="1661.78" y2="1157.11"/><line class="cls-5" x1="1673.61" y1="6.33" x2="1673.61" y2="1157.11"/><line class="cls-5" x1="1685.43" y1="6.33" x2="1685.43" y2="1157.11"/><line class="cls-5" x1="1697.26" y1="6.33" x2="1697.26" y2="1157.11"/><line class="cls-5" x1="1709.08" y1="6.33" x2="1709.08" y2="1157.11"/><line class="cls-5" x1="1720.91" y1="6.33" x2="1720.91" y2="1157.11"/><line class="cls-5" x1="1732.73" y1="6.33" x2="1732.73" y2="1157.11"/><line class="cls-5" x1="1744.56" y1="6.33" x2="1744.56" y2="1157.11"/><line class="cls-5" x1="1756.39" y1="6.33" x2="1756.39" y2="1157.11"/><line class="cls-5" x1="1768.21" y1="6.33" x2="1768.21" y2="1157.11"/><line class="cls-5" x1="1780.04" y1="6.33" x2="1780.04" y2="1157.11"/><line class="cls-5" x1="1791.86" y1="6.33" x2="1791.86" y2="1157.11"/><line class="cls-5" x1="1803.69" y1="6.33" x2="1803.69" y2="1157.11"/><line class="cls-5" x1="1815.51" y1="6.33" x2="1815.51" y2="1157.11"/><line class="cls-5" x1="1827.34" y1="6.33" x2="1827.34" y2="1157.11"/><line class="cls-5" x1="1839.16" y1="6.33" x2="1839.16" y2="1157.11"/><line class="cls-5" x1="1850.99" y1="6.33" x2="1850.99" y2="1157.11"/><line class="cls-5" x1="1862.81" y1="6.33" x2="1862.81" y2="1157.11"/><line class="cls-5" x1="1874.64" y1="6.33" x2="1874.64" y2="1157.11"/></g><polygon class="cls-1" points="1787.56 998.04 1673.61 988.98 1548.59 955.57 1474.36 916.27 1416.82 946.14 1315.46 871.81 1222.55 756.93 1084.02 756.93 979.18 785.65 808.65 670.78 710.67 640.37 491.67 677.53 443.75 635.3 357.6 664.02 357.6 68.41 131.88 68.41 131.88 1011.59 1788.12 1011.59 1787.56 998.04"/></svg>