<svg xmlns="http://www.w3.org/2000/svg" xmlns:xlink="http://www.w3.org/1999/xlink" viewBox="0 0 1920 1080"><defs><style>.cls-1,.cls-3,.cls-5,.cls-6{fill:none;}.cls-2{font-size:19.2px;fill:#fff;font-family:RobotoMono-Bold, Roboto Mono;font-weight:700;}.cls-3,.cls-5,.cls-6{stroke:#fff;stroke-miterlimit:10;}.cls-3{stroke-width:2.83px;}.cls-4{clip-path:url(#clip-path);}.cls-5{stroke-width:0.25px;}.cls-6{stroke-width:2px;}</style><clipPath id="clip-path"><rect class="cls-1" x="519.49" y="129.31" width="879.83" height="656.28" rx="87.64"/></clipPath></defs><g id="Layer_3" data-name="Layer 3"><text class="cls-2" transform="translate(923.24 821.65)">SAMSUNG</text><rect class="cls-3" x="519.49" y="129.31" width="879.83" height="656.28"/><rect class="cls-3" x="519.49" y="129.31" width="879.83" height="656.28" rx="84.31"/><rect class="cls-3" x="471.67" y="91.05" width="970.68" height="739.96" rx="17.14"/><rect class="cls-3" x="446.57" y="67.15" width="1024.47" height="784.19"/><rect class="cls-3" x="427.44" y="39.65" width="1063.92" height="916.89"/><rect class="cls-3" x="416.68" y="27.7" width="1086.63" height="940.79" rx="16.75"/><rect class="cls-3" x="436.61" y="878.04" width="284.51" height="70.93"/><rect class="cls-3" x="733.87" y="878.04" width="181.7" height="70.93"/><rect class="cls-3" x="928.32" y="878.04" width="78.1" height="72.52"/><rect class="cls-3" x="1017.32" y="878.04" width="114.76" height="72.52"/><rect class="cls-3" x="1140.31" y="878.04" width="70.93" height="70.93"/><rect class="cls-3" x="1226.38" y="878.04" width="255.02" height="72.52"/><polygon class="cls-3" points="1027.32 907.52 1047.37 887.47 1067.03 907.13 1027.32 907.52"/><polygon class="cls-3" points="1082.4 907.52 1102.45 887.47 1122.11 907.13 1082.4 907.52"/><polygon class="cls-3" points="1027.32 920.34 1047.37 940.4 1067.03 920.74 1027.32 920.34"/><polygon class="cls-3" points="1082.4 920.34 1102.45 940.4 1122.11 920.74 1082.4 920.34"/><path class="cls-3" d="M438.73,968.49H1475.29a0,0,0,0,1,0,0v70.78a13,13,0,0,1-13,13H451.76a13,13,0,0,1-13-13V968.49A0,0,0,0,1,438.73,968.49Z"/><polyline class="cls-3" points="438.73 1000.24 569.43 1000.24 569.43 1052.3"/><polyline class="cls-3" points="1475.29 996.52 1432.26 996.52 1432.26 1052.3"/><rect class="cls-3" x="1325.47" y="1000.24" width="15.94" height="30.28"/><circle class="cls-3" cx="1156.25" cy="1009" r="8.77"/><circle class="cls-3" cx="1111.02" cy="1017.77" r="8.77"/><circle class="cls-3" cx="1074.7" cy="1017.77" r="8.77"/><circle class="cls-3" cx="968.33" cy="1017.77" r="8.77"/><circle class="cls-3" cx="932" cy="1017.77" r="8.77"/><circle class="cls-3" cx="820.67" cy="1017.77" r="8.77"/><circle class="cls-3" cx="784.34" cy="1017.77" r="8.77"/><circle class="cls-3" cx="748.4" cy="1017.77" r="8.77"/><circle class="cls-3" cx="712.08" cy="1017.77" r="8.77"/><circle class="cls-3" cx="500.15" cy="1024.53" r="14.13"/><g class="cls-4"><line class="cls-5" x1="442.21" y1="73.09" x2="442.21" y2="923.1"/><line class="cls-5" x1="469.85" y1="73.09" x2="469.85" y2="923.1"/><line class="cls-5" x1="497.49" y1="73.09" x2="497.49" y2="923.1"/><line class="cls-5" x1="525.13" y1="73.09" x2="525.13" y2="923.1"/><line class="cls-5" x1="552.77" y1="73.09" x2="552.77" y2="923.1"/><line class="cls-5" x1="580.41" y1="73.09" x2="580.41" y2="923.1"/><line class="cls-5" x1="608.05" y1="73.09" x2="608.05" y2="923.1"/><line class="cls-5" x1="635.69" y1="73.09" x2="635.69" y2="923.1"/><line class="cls-5" x1="663.33" y1="73.09" x2="663.33" y2="923.1"/><line class="cls-5" x1="690.97" y1="73.09" x2="690.97" y2="923.1"/><line class="cls-5" x1="718.61" y1="73.09" x2="718.61" y2="923.1"/><line class="cls-5" x1="746.25" y1="73.09" x2="746.25" y2="923.1"/><line class="cls-5" x1="773.89" y1="73.09" x2="773.89" y2="923.1"/><line class="cls-5" x1="801.53" y1="73.09" x2="801.53" y2="923.1"/><line class="cls-5" x1="829.17" y1="73.09" x2="829.17" y2="923.1"/><line class="cls-5" x1="856.81" y1="73.09" x2="856.81" y2="923.1"/><line class="cls-5" x1="884.45" y1="73.09" x2="884.45" y2="923.1"/><line class="cls-5" x1="912.09" y1="73.09" x2="912.09" y2="923.1"/><line class="cls-5" x1="939.73" y1="73.09" x2="939.73" y2="923.1"/><line class="cls-5" x1="967.37" y1="73.09" x2="967.37" y2="923.1"/><line class="cls-5" x1="995.01" y1="73.09" x2="995.01" y2="923.1"/><line class="cls-5" x1="1022.65" y1="73.09" x2="1022.65" y2="923.1"/><line class="cls-5" x1="1050.29" y1="73.09" x2="1050.29" y2="923.1"/><line class="cls-5" x1="1077.93" y1="73.09" x2="1077.93" y2="923.1"/><line class="cls-5" x1="1105.57" y1="73.09" x2="1105.57" y2="923.1"/><line class="cls-5" x1="1133.21" y1="73.09" x2="1133.21" y2="923.1"/><line class="cls-5" x1="1160.85" y1="73.09" x2="1160.85" y2="923.1"/><line class="cls-5" x1="1188.49" y1="73.09" x2="1188.49" y2="923.1"/><line class="cls-5" x1="1216.13" y1="73.09" x2="1216.13" y2="923.1"/><line class="cls-5" x1="1243.77" y1="73.09" x2="1243.77" y2="923.1"/><line class="cls-5" x1="1271.41" y1="73.09" x2="1271.41" y2="923.1"/><line class="cls-5" x1="1299.05" y1="73.09" x2="1299.05" y2="923.1"/><line class="cls-5" x1="1326.69" y1="73.09" x2="1326.69" y2="923.1"/><line class="cls-5" x1="1354.33" y1="73.09" x2="1354.33" y2="923.1"/><line class="cls-5" x1="1381.97" y1="73.09" x2="1381.97" y2="923.1"/><line class="cls-5" x1="1409.61" y1="73.09" x2="1409.61" y2="923.1"/><line class="cls-5" x1="1437.25" y1="73.09" x2="1437.25" y2="923.1"/><line class="cls-5" x1="1464.89" y1="73.09" x2="1464.89" y2="923.1"/><line class="cls-5" x1="1492.53" y1="73.09" x2="1492.53" y2="923.1"/></g></g><g id="Layer_4" data-name="Layer 4"><path class="cls-6" d="M921.67,416.18h40.44q30.54,0,45.27-15.4t14.73-40.31a63,63,0,0,0-3.35-21,43.78,43.78,0,0,0-10-16.33,44.85,44.85,0,0,0-17-10.58,70.06,70.06,0,0,0-24-3.75,67,67,0,0,0-21,3.21,52.68,52.68,0,0,0-17.14,9.24,44.28,44.28,0,0,0-11.65,14.6,42.46,42.46,0,0,0-4.28,19.28H839.18q0-23.83,9.78-43.39a102,102,0,0,1,26.91-33.61,126.09,126.09,0,0,1,40.31-21.83,156.36,156.36,0,0,1,50-7.77q28.92,0,53,7.1t41.25,21.16a96.19,96.19,0,0,1,26.65,34.82q9.5,20.76,9.5,48.07a83.76,83.76,0,0,1-3.75,24.78,90.14,90.14,0,0,1-11,23.17,97.66,97.66,0,0,1-17.94,20.22,111.25,111.25,0,0,1-24.64,15.93,104.64,104.64,0,0,1,28.25,15,84.77,84.77,0,0,1,31.21,46.34,112.81,112.81,0,0,1,3.75,29.46q0,27.32-10.45,48.74a103.76,103.76,0,0,1-28.66,36q-18.21,14.61-43.25,22.23a184.25,184.25,0,0,1-54,7.64,174.83,174.83,0,0,1-48.61-6.83,130.21,130.21,0,0,1-42.18-20.62,103.13,103.13,0,0,1-29.6-34.69q-11.12-20.89-11.11-49.28h74.45a49.9,49.9,0,0,0,4.29,20.76,46.68,46.68,0,0,0,12.19,16.34,58.75,58.75,0,0,0,18.61,10.71,68.68,68.68,0,0,0,23.57,3.88q28.38,0,44.46-15t16.07-40.71q0-15.79-4.56-27.05a45.91,45.91,0,0,0-13.25-18.48,56.6,56.6,0,0,0-20.89-10.71A100,100,0,0,0,962.11,474H921.67Z"/></g></svg>