<svg id="Layer_3" data-name="Layer 3" xmlns="http://www.w3.org/2000/svg" viewBox="0 0 1920 1080"><defs><style>.cls-1{font-size:19.2px;fill:#fff;font-family:RobotoMono-Bold, Roboto Mono;font-weight:700;}.cls-2{fill:none;stroke:#fff;stroke-miterlimit:10;stroke-width:2.83px;}</style></defs><text class="cls-1" transform="translate(919.65 815.76)">SAMSUNG</text><rect class="cls-2" x="515.91" y="123.42" width="879.83" height="656.28"/><rect class="cls-2" x="515.91" y="123.42" width="879.83" height="656.28" rx="84.31"/><rect class="cls-2" x="468.09" y="85.17" width="970.68" height="739.96" rx="17.14"/><rect class="cls-2" x="442.99" y="61.26" width="1024.47" height="784.19"/><rect class="cls-2" x="423.86" y="33.76" width="1063.92" height="916.89"/><rect class="cls-2" x="413.1" y="21.81" width="1086.63" height="940.79" rx="16.75"/><rect class="cls-2" x="433.02" y="872.15" width="284.51" height="70.93"/><rect class="cls-2" x="730.28" y="872.15" width="181.7" height="70.93"/><rect class="cls-2" x="924.74" y="872.15" width="78.1" height="72.52"/><rect class="cls-2" x="1013.74" y="872.15" width="114.76" height="72.52"/><rect class="cls-2" x="1136.73" y="872.15" width="70.93" height="70.93"/><rect class="cls-2" x="1222.8" y="872.15" width="255.02" height="72.52"/><polygon class="cls-2" points="1023.73 901.64 1043.79 881.58 1063.45 901.24 1023.73 901.64"/><polygon class="cls-2" points="1078.82 901.64 1098.87 881.58 1118.53 901.24 1078.82 901.64"/><polygon class="cls-2" points="1023.73 914.45 1043.79 934.51 1063.45 914.85 1023.73 914.45"/><polygon class="cls-2" points="1078.82 914.45 1098.87 934.51 1118.53 914.85 1078.82 914.45"/><path class="cls-2" d="M435.15,962.6H1471.71a0,0,0,0,1,0,0v70.78a13,13,0,0,1-13,13H448.18a13,13,0,0,1-13-13V962.6A0,0,0,0,1,435.15,962.6Z"/><polyline class="cls-2" points="435.15 994.35 565.85 994.35 565.85 1046.41"/><polyline class="cls-2" points="1471.71 990.63 1428.67 990.63 1428.67 1046.41"/><rect class="cls-2" x="1321.88" y="994.35" width="15.94" height="30.28"/><circle class="cls-2" cx="1152.67" cy="1003.11" r="8.77"/><circle class="cls-2" cx="1107.44" cy="1011.88" r="8.77"/><circle class="cls-2" cx="1071.12" cy="1011.88" r="8.77"/><circle class="cls-2" cx="964.74" cy="1011.88" r="8.77"/><circle class="cls-2" cx="928.42" cy="1011.88" r="8.77"/><circle class="cls-2" cx="817.09" cy="1011.88" r="8.77"/><circle class="cls-2" cx="780.76" cy="1011.88" r="8.77"/><circle class="cls-2" cx="744.82" cy="1011.88" r="8.77"/><circle class="cls-2" cx="708.5" cy="1011.88" r="8.77"/><circle class="cls-2" cx="496.56" cy="1018.64" r="14.13"/></svg>