<svg xmlns="http://www.w3.org/2000/svg" xmlns:xlink="http://www.w3.org/1999/xlink" viewBox="0 0 1920 1080"><defs><style>.cls-1,.cls-3,.cls-5,.cls-6{fill:none;}.cls-2{font-size:27.11px;fill:#fff;font-family:RobotoMono-Bold, Roboto Mono;font-weight:700;}.cls-3,.cls-5,.cls-6{stroke:#fff;stroke-miterlimit:10;}.cls-3{stroke-width:3.07px;}.cls-4{clip-path:url(#clip-path);}.cls-5{stroke-width:0.25px;}.cls-6{stroke-width:2px;}</style><clipPath id="clip-path"><rect class="cls-1" x="483.65" y="114.52" width="963.66" height="728.37" rx="44.71"/></clipPath></defs><g id="Layer_3" data-name="Layer 3"><text class="cls-2" transform="translate(920.43 923.01)">DAEWOO</text><rect class="cls-3" x="483.65" y="114.52" width="963.66" height="728.37"/><rect class="cls-3" x="464.62" y="97.22" width="1001.72" height="762.97" rx="11.81"/><path class="cls-3" d="M1629.93,76.54a44.73,44.73,0,0,0-39-36.15,37.29,37.29,0,0,1-6.93-1.53c-54.15-16.77-1182.87-16.77-1237,0A37.39,37.39,0,0,1,340,40.39a44.73,44.73,0,0,0-37.8,31.27,184.94,184.94,0,0,1-7,18.82c-29.39,68.09-29.39,729.11,0,797.2a185.84,185.84,0,0,1,7,18.82A44.71,44.71,0,0,0,345,938h1.26c22.92,27.82,43.44,56.55,35.5,96.21h19.46v19.47H1511.9v-24.66h16.87c-5.41-39,19-66.26,53.07-89.73A7.36,7.36,0,0,1,1586,938h0a44.71,44.71,0,0,0,43.93-36.42,103.72,103.72,0,0,1,3.26-12.09c18.21-57.35,18.21-743.55,0-800.9A103.19,103.19,0,0,1,1629.93,76.54Z"/><circle class="cls-3" cx="629.12" cy="973.36" r="22.64"/><circle class="cls-3" cx="683.76" cy="973.36" r="10.38"/><circle class="cls-3" cx="718.26" cy="973.36" r="10.38"/><circle class="cls-3" cx="873.97" cy="973.36" r="10.38"/><circle class="cls-3" cx="947.68" cy="973.36" r="10.38"/><circle class="cls-3" cx="981.86" cy="973.36" r="10.38"/><circle class="cls-3" cx="1016.04" cy="973.36" r="10.38"/><circle class="cls-3" cx="1050.22" cy="973.36" r="10.38"/><circle class="cls-3" cx="1084.4" cy="973.36" r="10.38"/><circle class="cls-3" cx="752.76" cy="973.36" r="10.38"/><circle class="cls-3" cx="790.74" cy="975.24" r="6.63"/><circle class="cls-3" cx="840.05" cy="975.24" r="6.63"/><rect class="cls-3" x="483.65" y="114.52" width="963.66" height="728.37" rx="37.59"/><g class="cls-4"><line class="cls-5" x1="456.01" y1="53.46" x2="456.01" y2="903.47"/><line class="cls-5" x1="483.65" y1="53.46" x2="483.65" y2="903.47"/><line class="cls-5" x1="511.29" y1="53.46" x2="511.29" y2="903.47"/><line class="cls-5" x1="538.93" y1="53.46" x2="538.93" y2="903.47"/><line class="cls-5" x1="566.57" y1="53.46" x2="566.57" y2="903.47"/><line class="cls-5" x1="594.21" y1="53.46" x2="594.21" y2="903.47"/><line class="cls-5" x1="621.85" y1="53.46" x2="621.85" y2="903.47"/><line class="cls-5" x1="649.49" y1="53.46" x2="649.49" y2="903.47"/><line class="cls-5" x1="677.13" y1="53.46" x2="677.13" y2="903.47"/><line class="cls-5" x1="704.77" y1="53.46" x2="704.77" y2="903.47"/><line class="cls-5" x1="732.41" y1="53.46" x2="732.41" y2="903.47"/><line class="cls-5" x1="760.05" y1="53.46" x2="760.05" y2="903.47"/><line class="cls-5" x1="787.69" y1="53.46" x2="787.69" y2="903.47"/><line class="cls-5" x1="815.33" y1="53.46" x2="815.33" y2="903.47"/><line class="cls-5" x1="842.97" y1="53.46" x2="842.97" y2="903.47"/><line class="cls-5" x1="870.61" y1="53.46" x2="870.61" y2="903.47"/><line class="cls-5" x1="898.25" y1="53.46" x2="898.25" y2="903.47"/><line class="cls-5" x1="925.89" y1="53.46" x2="925.89" y2="903.47"/><line class="cls-5" x1="953.53" y1="53.46" x2="953.53" y2="903.47"/><line class="cls-5" x1="981.17" y1="53.46" x2="981.17" y2="903.47"/><line class="cls-5" x1="1008.81" y1="53.46" x2="1008.81" y2="903.47"/><line class="cls-5" x1="1036.45" y1="53.46" x2="1036.45" y2="903.47"/><line class="cls-5" x1="1064.08" y1="53.46" x2="1064.08" y2="903.47"/><line class="cls-5" x1="1091.72" y1="53.46" x2="1091.72" y2="903.47"/><line class="cls-5" x1="1119.36" y1="53.46" x2="1119.36" y2="903.47"/><line class="cls-5" x1="1147" y1="53.46" x2="1147" y2="903.47"/><line class="cls-5" x1="1174.64" y1="53.46" x2="1174.64" y2="903.47"/><line class="cls-5" x1="1202.28" y1="53.46" x2="1202.28" y2="903.47"/><line class="cls-5" x1="1229.92" y1="53.46" x2="1229.92" y2="903.47"/><line class="cls-5" x1="1257.56" y1="53.46" x2="1257.56" y2="903.47"/><line class="cls-5" x1="1285.2" y1="53.46" x2="1285.2" y2="903.47"/><line class="cls-5" x1="1312.84" y1="53.46" x2="1312.84" y2="903.47"/><line class="cls-5" x1="1340.48" y1="53.46" x2="1340.48" y2="903.47"/><line class="cls-5" x1="1368.12" y1="53.46" x2="1368.12" y2="903.47"/><line class="cls-5" x1="1395.76" y1="53.46" x2="1395.76" y2="903.47"/><line class="cls-5" x1="1423.4" y1="53.46" x2="1423.4" y2="903.47"/><line class="cls-5" x1="1451.04" y1="53.46" x2="1451.04" y2="903.47"/><line class="cls-5" x1="1478.68" y1="53.46" x2="1478.68" y2="903.47"/><line class="cls-5" x1="1506.32" y1="53.46" x2="1506.32" y2="903.47"/></g></g><g id="Layer_4" data-name="Layer 4"><path class="cls-6" d="M1046.48,498.94h45.26V559.2h-45.26v84.63H972V559.2H810l-3-46.61L971,253.87h75.53Zm-166.32,0H972V354l-7.23,12.86Z"/></g></svg>