<svg id="Layer_3" data-name="Layer 3" xmlns="http://www.w3.org/2000/svg" viewBox="0 0 1920 1080"><defs><style>.cls-1{fill:none;stroke:#fff;stroke-miterlimit:10;stroke-width:2.54px;}.cls-2{font-size:11.81px;fill:#fff;font-family:RobotoMono-Bold, Roboto Mono;font-weight:700;}</style></defs><rect class="cls-1" x="221.31" y="50.69" width="1477.38" height="841.32"/><rect class="cls-1" x="197.68" y="28.99" width="1524.64" height="884.72"/><rect class="cls-1" x="916.34" y="913.71" width="87.33" height="95.31"/><line class="cls-1" x1="916.34" y1="967.5" x2="587.07" y2="988.98"/><polyline class="cls-1" points="916.34 988.98 507.57 1026.2 487.05 1036.7 491.35 1051.01 542.41 1051.01 550.04 1045.76 916.34 1009.02 494.02 1043.38"/><rect class="cls-1" x="1582.69" y="899.74" width="60.13" height="13.96" rx="6.98"/><polygon class="cls-1" points="564.84 988.98 591.08 975.62 916.34 955.57 916.34 988.98 573.9 998.04 564.84 988.98"/><line class="cls-1" x1="1003.66" y1="967.5" x2="1332.93" y2="988.98"/><polyline class="cls-1" points="1003.66 988.98 1412.43 1026.2 1432.95 1036.7 1428.65 1051.01 1377.59 1051.01 1369.96 1045.76 1003.66 1009.02 1425.98 1043.38"/><polygon class="cls-1" points="1355.16 988.98 1328.92 975.62 1003.66 955.57 1003.66 988.98 1346.1 998.04 1355.16 988.98"/><text class="cls-2" transform="translate(937.2 907.99)">SAMSUNG</text></svg>