<svg id="Layer_3" data-name="Layer 3" xmlns="http://www.w3.org/2000/svg" viewBox="0 0 1920 1080"><defs><style>.cls-1{font-size:27.11px;fill:#fff;font-family:RobotoMono-Bold, Roboto Mono;font-weight:700;}.cls-2{fill:none;stroke:#fff;stroke-miterlimit:10;stroke-width:3.07px;}</style></defs><text class="cls-1" transform="translate(928.45 917.12)">DAEWOO</text><rect class="cls-2" x="491.67" y="108.63" width="963.66" height="728.37"/><rect class="cls-2" x="472.64" y="91.33" width="1001.72" height="762.97" rx="11.81"/><path class="cls-2" d="M1638,70.65a44.73,44.73,0,0,0-39-36.15A37.57,37.57,0,0,1,1592,33C1537.86,16.2,409.14,16.2,355,33a37.57,37.57,0,0,1-6.94,1.53,44.76,44.76,0,0,0-37.81,31.28,183.3,183.3,0,0,1-7,18.81c-29.39,68.09-29.39,729.11,0,797.2a183.47,183.47,0,0,1,7,18.82A44.72,44.72,0,0,0,353,932.15h1.26c22.92,27.82,43.43,56.55,35.49,96.22H409.2v19.46H1519.92v-24.65h16.87c-5.41-39,19-66.26,53.06-89.74a7.39,7.39,0,0,1,4.17-1.29h0A44.71,44.71,0,0,0,1638,895.74a101.42,101.42,0,0,1,3.26-12.1c18.21-57.35,18.21-743.55,0-800.9A101.27,101.27,0,0,1,1638,70.65Z"/><circle class="cls-2" cx="637.14" cy="967.48" r="22.64"/><circle class="cls-2" cx="691.78" cy="967.48" r="10.38"/><circle class="cls-2" cx="726.28" cy="967.48" r="10.38"/><circle class="cls-2" cx="881.98" cy="967.48" r="10.38"/><circle class="cls-2" cx="955.7" cy="967.48" r="10.38"/><circle class="cls-2" cx="989.88" cy="967.48" r="10.38"/><circle class="cls-2" cx="1024.06" cy="967.48" r="10.38"/><circle class="cls-2" cx="1058.24" cy="967.48" r="10.38"/><circle class="cls-2" cx="1092.41" cy="967.48" r="10.38"/><circle class="cls-2" cx="760.78" cy="967.48" r="10.38"/><circle class="cls-2" cx="798.76" cy="969.35" r="6.63"/><circle class="cls-2" cx="848.06" cy="969.35" r="6.63"/><rect class="cls-2" x="491.67" y="108.63" width="963.66" height="728.37" rx="37.59"/></svg>