<svg xmlns="http://www.w3.org/2000/svg" xmlns:xlink="http://www.w3.org/1999/xlink" viewBox="0 0 1920 1080"><defs><style>.cls-1,.cls-3,.cls-5,.cls-6{fill:none;}.cls-2{font-size:19.2px;fill:#fff;font-family:RobotoMono-Bold, Roboto Mono;font-weight:700;}.cls-3,.cls-5,.cls-6{stroke:#fff;stroke-miterlimit:10;}.cls-3{stroke-width:2.83px;}.cls-4{clip-path:url(#clip-path);}.cls-5{stroke-width:0.25px;}.cls-6{stroke-width:2px;}</style><clipPath id="clip-path"><rect class="cls-1" x="515.91" y="123.42" width="879.83" height="656.28" rx="87.64"/></clipPath></defs><g id="Layer_3" data-name="Layer 3"><text class="cls-2" transform="translate(919.65 815.76)">SAMSUNG</text><rect class="cls-3" x="515.91" y="123.42" width="879.83" height="656.28"/><rect class="cls-3" x="515.91" y="123.42" width="879.83" height="656.28" rx="84.31"/><rect class="cls-3" x="468.09" y="85.17" width="970.68" height="739.96" rx="17.14"/><rect class="cls-3" x="442.99" y="61.26" width="1024.47" height="784.19"/><rect class="cls-3" x="423.86" y="33.76" width="1063.92" height="916.89"/><rect class="cls-3" x="413.1" y="21.81" width="1086.63" height="940.79" rx="16.75"/><rect class="cls-3" x="433.02" y="872.15" width="284.51" height="70.93"/><rect class="cls-3" x="730.28" y="872.15" width="181.7" height="70.93"/><rect class="cls-3" x="924.74" y="872.15" width="78.1" height="72.52"/><rect class="cls-3" x="1013.74" y="872.15" width="114.76" height="72.52"/><rect class="cls-3" x="1136.73" y="872.15" width="70.93" height="70.93"/><rect class="cls-3" x="1222.8" y="872.15" width="255.02" height="72.52"/><polygon class="cls-3" points="1023.73 901.64 1043.79 881.58 1063.45 901.24 1023.73 901.64"/><polygon class="cls-3" points="1078.82 901.64 1098.87 881.58 1118.53 901.24 1078.82 901.64"/><polygon class="cls-3" points="1023.73 914.45 1043.79 934.51 1063.45 914.85 1023.73 914.45"/><polygon class="cls-3" points="1078.82 914.45 1098.87 934.51 1118.53 914.85 1078.82 914.45"/><path class="cls-3" d="M435.15,962.6H1471.71a0,0,0,0,1,0,0v70.78a13,13,0,0,1-13,13H448.18a13,13,0,0,1-13-13V962.6A0,0,0,0,1,435.15,962.6Z"/><polyline class="cls-3" points="435.15 994.35 565.85 994.35 565.85 1046.41"/><polyline class="cls-3" points="1471.71 990.63 1428.67 990.63 1428.67 1046.41"/><rect class="cls-3" x="1321.88" y="994.35" width="15.94" height="30.28"/><circle class="cls-3" cx="1152.67" cy="1003.11" r="8.77"/><circle class="cls-3" cx="1107.44" cy="1011.88" r="8.77"/><circle class="cls-3" cx="1071.12" cy="1011.88" r="8.77"/><circle class="cls-3" cx="964.74" cy="1011.88" r="8.77"/><circle class="cls-3" cx="928.42" cy="1011.88" r="8.77"/><circle class="cls-3" cx="817.09" cy="1011.88" r="8.77"/><circle class="cls-3" cx="780.76" cy="1011.88" r="8.77"/><circle class="cls-3" cx="744.82" cy="1011.88" r="8.77"/><circle class="cls-3" cx="708.5" cy="1011.88" r="8.77"/><circle class="cls-3" cx="496.56" cy="1018.64" r="14.13"/><g class="cls-4"><line class="cls-5" x1="438.63" y1="67.2" x2="438.63" y2="917.21"/><line class="cls-5" x1="466.27" y1="67.2" x2="466.27" y2="917.21"/><line class="cls-5" x1="493.91" y1="67.2" x2="493.91" y2="917.21"/><line class="cls-5" x1="521.55" y1="67.2" x2="521.55" y2="917.21"/><line class="cls-5" x1="549.19" y1="67.2" x2="549.19" y2="917.21"/><line class="cls-5" x1="576.83" y1="67.2" x2="576.83" y2="917.21"/><line class="cls-5" x1="604.47" y1="67.2" x2="604.47" y2="917.21"/><line class="cls-5" x1="632.11" y1="67.2" x2="632.11" y2="917.21"/><line class="cls-5" x1="659.75" y1="67.2" x2="659.75" y2="917.21"/><line class="cls-5" x1="687.39" y1="67.2" x2="687.39" y2="917.21"/><line class="cls-5" x1="715.03" y1="67.2" x2="715.03" y2="917.21"/><line class="cls-5" x1="742.67" y1="67.2" x2="742.67" y2="917.21"/><line class="cls-5" x1="770.31" y1="67.2" x2="770.31" y2="917.21"/><line class="cls-5" x1="797.95" y1="67.2" x2="797.95" y2="917.21"/><line class="cls-5" x1="825.59" y1="67.2" x2="825.59" y2="917.21"/><line class="cls-5" x1="853.23" y1="67.2" x2="853.23" y2="917.21"/><line class="cls-5" x1="880.87" y1="67.2" x2="880.87" y2="917.21"/><line class="cls-5" x1="908.51" y1="67.2" x2="908.51" y2="917.21"/><line class="cls-5" x1="936.15" y1="67.2" x2="936.15" y2="917.21"/><line class="cls-5" x1="963.79" y1="67.2" x2="963.79" y2="917.21"/><line class="cls-5" x1="991.43" y1="67.2" x2="991.43" y2="917.21"/><line class="cls-5" x1="1019.07" y1="67.2" x2="1019.07" y2="917.21"/><line class="cls-5" x1="1046.71" y1="67.2" x2="1046.71" y2="917.21"/><line class="cls-5" x1="1074.35" y1="67.2" x2="1074.35" y2="917.21"/><line class="cls-5" x1="1101.99" y1="67.2" x2="1101.99" y2="917.21"/><line class="cls-5" x1="1129.63" y1="67.2" x2="1129.63" y2="917.21"/><line class="cls-5" x1="1157.27" y1="67.2" x2="1157.27" y2="917.21"/><line class="cls-5" x1="1184.91" y1="67.2" x2="1184.91" y2="917.21"/><line class="cls-5" x1="1212.55" y1="67.2" x2="1212.55" y2="917.21"/><line class="cls-5" x1="1240.19" y1="67.2" x2="1240.19" y2="917.21"/><line class="cls-5" x1="1267.83" y1="67.2" x2="1267.83" y2="917.21"/><line class="cls-5" x1="1295.47" y1="67.2" x2="1295.47" y2="917.21"/><line class="cls-5" x1="1323.11" y1="67.2" x2="1323.11" y2="917.21"/><line class="cls-5" x1="1350.75" y1="67.2" x2="1350.75" y2="917.21"/><line class="cls-5" x1="1378.39" y1="67.2" x2="1378.39" y2="917.21"/><line class="cls-5" x1="1406.03" y1="67.2" x2="1406.03" y2="917.21"/><line class="cls-5" x1="1433.67" y1="67.2" x2="1433.67" y2="917.21"/><line class="cls-5" x1="1461.31" y1="67.2" x2="1461.31" y2="917.21"/><line class="cls-5" x1="1488.95" y1="67.2" x2="1488.95" y2="917.21"/></g></g><g id="Layer_4" data-name="Layer 4"><path class="cls-6" d="M1046.48,498.94h45.26V559.2h-45.26v84.63H972V559.2H810l-3-46.61L971,253.87h75.53Zm-166.32,0H972V354l-7.23,12.86Z"/></g></svg>