<svg id="Layer_3" data-name="Layer 3" xmlns="http://www.w3.org/2000/svg" viewBox="0 0 1920 1080"><defs><style>.cls-1{fill:none;stroke:#fff;stroke-miterlimit:10;stroke-width:2.99px;}.cls-2{font-size:23.41px;fill:#fff;font-family:RobotoMono-Bold, Roboto Mono;font-weight:700;}</style></defs><rect class="cls-1" x="131.88" y="68.41" width="1656.24" height="943.17"/><rect class="cls-1" x="90.16" y="30.48" width="1739.69" height="1019.03"/><circle class="cls-1" cx="1808.42" cy="831.91" r="10.4"/><circle class="cls-1" cx="1808.42" cy="889.07" r="10.4"/><circle class="cls-1" cx="1808.42" cy="916.27" r="10.4"/><line class="cls-1" x1="1537.3" y1="1036.17" x2="1537.3" y2="1049.52"/><line class="cls-1" x1="1565.95" y1="1036.17" x2="1565.95" y2="1049.52"/><line class="cls-1" x1="1594.61" y1="1036.17" x2="1594.61" y2="1049.52"/><line class="cls-1" x1="1623.27" y1="1036.17" x2="1623.27" y2="1049.52"/><line class="cls-1" x1="1651.93" y1="1036.17" x2="1651.93" y2="1049.52"/><line class="cls-1" x1="1680.59" y1="1036.17" x2="1680.59" y2="1049.52"/><line class="cls-1" x1="1709.24" y1="1036.17" x2="1709.24" y2="1049.52"/><line class="cls-1" x1="1737.9" y1="1036.17" x2="1737.9" y2="1049.52"/><line class="cls-1" x1="90.16" y1="937.27" x2="131.88" y2="937.27"/><line class="cls-1" x1="1787.56" y1="937.27" x2="1829.28" y2="937.27"/><line class="cls-1" x1="90.16" y1="150.59" x2="131.88" y2="150.59"/><line class="cls-1" x1="1787.56" y1="150.59" x2="1829.28" y2="150.59"/><line class="cls-1" x1="213.43" y1="30.48" x2="213.43" y2="68.41"/><line class="cls-1" x1="213.43" y1="1011.59" x2="213.43" y2="1049.52"/><line class="cls-1" x1="1705.42" y1="30.48" x2="1705.42" y2="68.41"/><line class="cls-1" x1="1705.42" y1="1011.59" x2="1705.42" y2="1049.52"/><text class="cls-2" transform="translate(938.02 1040.58)">NEC</text></svg>