<svg xmlns="http://www.w3.org/2000/svg" xmlns:xlink="http://www.w3.org/1999/xlink" viewBox="0 0 1920 1080"><defs><style>.cls-1,.cls-3,.cls-5,.cls-6{fill:none;}.cls-2{font-size:27.11px;fill:#fff;font-family:RobotoMono-Bold, Roboto Mono;font-weight:700;}.cls-3,.cls-5,.cls-6{stroke:#fff;stroke-miterlimit:10;}.cls-3{stroke-width:3.07px;}.cls-4{clip-path:url(#clip-path);}.cls-5{stroke-width:0.25px;}.cls-6{stroke-width:2px;}</style><clipPath id="clip-path"><rect class="cls-1" x="491.67" y="108.63" width="963.66" height="728.37" rx="44.71"/></clipPath></defs><g id="Layer_3" data-name="Layer 3"><text class="cls-2" transform="translate(928.45 917.12)">DAEWOO</text><rect class="cls-3" x="491.67" y="108.63" width="963.66" height="728.37"/><rect class="cls-3" x="472.64" y="91.33" width="1001.72" height="762.97" rx="11.81"/><path class="cls-3" d="M1638,70.65a44.73,44.73,0,0,0-39-36.15A37.57,37.57,0,0,1,1592,33C1537.86,16.2,409.14,16.2,355,33a37.57,37.57,0,0,1-6.94,1.53,44.76,44.76,0,0,0-37.81,31.28,183.3,183.3,0,0,1-7,18.81c-29.39,68.09-29.39,729.11,0,797.2a183.47,183.47,0,0,1,7,18.82A44.72,44.72,0,0,0,353,932.15h1.26c22.92,27.82,43.43,56.55,35.49,96.22H409.2v19.46H1519.92v-24.65h16.87c-5.41-39,19-66.26,53.06-89.74a7.39,7.39,0,0,1,4.17-1.29h0A44.71,44.71,0,0,0,1638,895.74a101.42,101.42,0,0,1,3.26-12.1c18.21-57.35,18.21-743.55,0-800.9A101.27,101.27,0,0,1,1638,70.65Z"/><circle class="cls-3" cx="637.14" cy="967.48" r="22.64"/><circle class="cls-3" cx="691.78" cy="967.48" r="10.38"/><circle class="cls-3" cx="726.28" cy="967.48" r="10.38"/><circle class="cls-3" cx="881.98" cy="967.48" r="10.38"/><circle class="cls-3" cx="955.7" cy="967.48" r="10.38"/><circle class="cls-3" cx="989.88" cy="967.48" r="10.38"/><circle class="cls-3" cx="1024.06" cy="967.48" r="10.38"/><circle class="cls-3" cx="1058.24" cy="967.48" r="10.38"/><circle class="cls-3" cx="1092.41" cy="967.48" r="10.38"/><circle class="cls-3" cx="760.78" cy="967.48" r="10.38"/><circle class="cls-3" cx="798.76" cy="969.35" r="6.63"/><circle class="cls-3" cx="848.06" cy="969.35" r="6.63"/><rect class="cls-3" x="491.67" y="108.63" width="963.66" height="728.37" rx="37.59"/><g class="cls-4"><line class="cls-5" x1="464.03" y1="47.58" x2="464.03" y2="897.59"/><line class="cls-5" x1="491.67" y1="47.58" x2="491.67" y2="897.59"/><line class="cls-5" x1="519.31" y1="47.58" x2="519.31" y2="897.59"/><line class="cls-5" x1="546.95" y1="47.58" x2="546.95" y2="897.59"/><line class="cls-5" x1="574.59" y1="47.58" x2="574.59" y2="897.59"/><line class="cls-5" x1="602.23" y1="47.58" x2="602.23" y2="897.59"/><line class="cls-5" x1="629.87" y1="47.58" x2="629.87" y2="897.59"/><line class="cls-5" x1="657.51" y1="47.58" x2="657.51" y2="897.59"/><line class="cls-5" x1="685.14" y1="47.58" x2="685.14" y2="897.59"/><line class="cls-5" x1="712.78" y1="47.58" x2="712.78" y2="897.59"/><line class="cls-5" x1="740.42" y1="47.58" x2="740.42" y2="897.59"/><line class="cls-5" x1="768.06" y1="47.58" x2="768.06" y2="897.59"/><line class="cls-5" x1="795.7" y1="47.58" x2="795.7" y2="897.59"/><line class="cls-5" x1="823.34" y1="47.58" x2="823.34" y2="897.59"/><line class="cls-5" x1="850.98" y1="47.58" x2="850.98" y2="897.59"/><line class="cls-5" x1="878.62" y1="47.58" x2="878.62" y2="897.59"/><line class="cls-5" x1="906.26" y1="47.58" x2="906.26" y2="897.59"/><line class="cls-5" x1="933.9" y1="47.58" x2="933.9" y2="897.59"/><line class="cls-5" x1="961.54" y1="47.58" x2="961.54" y2="897.59"/><line class="cls-5" x1="989.18" y1="47.58" x2="989.18" y2="897.59"/><line class="cls-5" x1="1016.82" y1="47.58" x2="1016.82" y2="897.59"/><line class="cls-5" x1="1044.46" y1="47.58" x2="1044.46" y2="897.59"/><line class="cls-5" x1="1072.1" y1="47.58" x2="1072.1" y2="897.59"/><line class="cls-5" x1="1099.74" y1="47.58" x2="1099.74" y2="897.59"/><line class="cls-5" x1="1127.38" y1="47.58" x2="1127.38" y2="897.59"/><line class="cls-5" x1="1155.02" y1="47.58" x2="1155.02" y2="897.59"/><line class="cls-5" x1="1182.66" y1="47.58" x2="1182.66" y2="897.59"/><line class="cls-5" x1="1210.3" y1="47.58" x2="1210.3" y2="897.59"/><line class="cls-5" x1="1237.94" y1="47.58" x2="1237.94" y2="897.59"/><line class="cls-5" x1="1265.58" y1="47.58" x2="1265.58" y2="897.59"/><line class="cls-5" x1="1293.22" y1="47.58" x2="1293.22" y2="897.59"/><line class="cls-5" x1="1320.86" y1="47.58" x2="1320.86" y2="897.59"/><line class="cls-5" x1="1348.5" y1="47.58" x2="1348.5" y2="897.59"/><line class="cls-5" x1="1376.14" y1="47.58" x2="1376.14" y2="897.59"/><line class="cls-5" x1="1403.78" y1="47.58" x2="1403.78" y2="897.59"/><line class="cls-5" x1="1431.42" y1="47.58" x2="1431.42" y2="897.59"/><line class="cls-5" x1="1459.06" y1="47.58" x2="1459.06" y2="897.59"/><line class="cls-5" x1="1486.7" y1="47.58" x2="1486.7" y2="897.59"/><line class="cls-5" x1="1514.34" y1="47.58" x2="1514.34" y2="897.59"/></g></g><g id="Layer_4" data-name="Layer 4"><path class="cls-6" d="M921.67,416.18h40.44q30.54,0,45.27-15.4t14.73-40.31a63,63,0,0,0-3.35-21,43.78,43.78,0,0,0-10-16.33,44.85,44.85,0,0,0-17-10.58,70.06,70.06,0,0,0-24-3.75,67,67,0,0,0-21,3.21,52.68,52.68,0,0,0-17.14,9.24,44.28,44.28,0,0,0-11.65,14.6,42.46,42.46,0,0,0-4.28,19.28H839.18q0-23.83,9.78-43.39a102,102,0,0,1,26.91-33.61,126.09,126.09,0,0,1,40.31-21.83,156.36,156.36,0,0,1,50-7.77q28.92,0,53,7.1t41.25,21.16a96.19,96.19,0,0,1,26.65,34.82q9.5,20.76,9.5,48.07a83.76,83.76,0,0,1-3.75,24.78,90.14,90.14,0,0,1-11,23.17,97.66,97.66,0,0,1-17.94,20.22,111.25,111.25,0,0,1-24.64,15.93,104.64,104.64,0,0,1,28.25,15,84.77,84.77,0,0,1,31.21,46.34,112.81,112.81,0,0,1,3.75,29.46q0,27.32-10.45,48.74a103.76,103.76,0,0,1-28.66,36q-18.21,14.61-43.25,22.23a184.25,184.25,0,0,1-54,7.64,174.83,174.83,0,0,1-48.61-6.83,130.21,130.21,0,0,1-42.18-20.62,103.13,103.13,0,0,1-29.6-34.69q-11.12-20.89-11.11-49.28h74.45a49.9,49.9,0,0,0,4.29,20.76,46.68,46.68,0,0,0,12.19,16.34,58.75,58.75,0,0,0,18.61,10.71,68.68,68.68,0,0,0,23.57,3.88q28.38,0,44.46-15t16.07-40.71q0-15.79-4.56-27.05a45.91,45.91,0,0,0-13.25-18.48,56.6,56.6,0,0,0-20.89-10.71A100,100,0,0,0,962.11,474H921.67Z"/></g></svg>