<svg id="Layer_3" data-name="Layer 3" xmlns="http://www.w3.org/2000/svg" viewBox="0 0 1920 1080"><defs><style>.cls-1{fill:none;stroke:#fff;stroke-miterlimit:10;stroke-width:2px;}.cls-2{font-size:9.29px;fill:#fff;font-family:RobotoMono-Bold, Roboto Mono;font-weight:700;}</style></defs><rect class="cls-1" x="388.04" y="165.75" width="1162.27" height="661.87"/><rect class="cls-1" x="369.45" y="148.68" width="1199.44" height="696.02"/><rect class="cls-1" x="934.82" y="844.69" width="68.7" height="74.98"/><line class="cls-1" x1="934.82" y1="887.02" x2="675.79" y2="903.91"/><polyline class="cls-1" points="934.82 903.91 613.24 933.19 597.1 941.45 600.48 952.71 640.65 952.71 646.65 948.58 934.82 919.68 602.58 946.71"/><rect class="cls-1" x="1459.05" y="833.71" width="47.3" height="10.99" rx="5.49"/><polygon class="cls-1" points="658.29 903.91 678.94 893.4 934.82 877.63 934.82 903.91 665.43 911.04 658.29 903.91"/><line class="cls-1" x1="1003.52" y1="887.02" x2="1262.56" y2="903.91"/><polyline class="cls-1" points="1003.52 903.91 1325.1 933.19 1341.24 941.45 1337.86 952.71 1297.69 952.71 1291.69 948.58 1003.52 919.68 1335.76 946.71"/><polygon class="cls-1" points="1280.05 903.91 1259.4 893.4 1003.52 877.63 1003.52 903.91 1272.92 911.04 1280.05 903.91"/><text class="cls-2" transform="translate(951.24 840.2)">SAMSUNG</text></svg>