<svg id="Layer_3" data-name="Layer 3" xmlns="http://www.w3.org/2000/svg" viewBox="0 0 1920 1080"><defs><style>.cls-1{fill:none;stroke:#fff;stroke-miterlimit:10;stroke-width:2px;}.cls-2{font-size:13.56px;fill:#fff;font-family:RobotoMono-Bold, Roboto Mono;font-weight:700;}</style></defs><rect class="cls-1" x="645.15" y="298.45" width="621.68" height="463.73"/><rect class="cls-1" x="645.15" y="298.45" width="621.68" height="463.73" rx="59.57"/><rect class="cls-1" x="611.37" y="271.42" width="685.88" height="522.86" rx="12.11"/><rect class="cls-1" x="593.63" y="254.52" width="723.89" height="554.11"/><rect class="cls-1" x="580.11" y="235.1" width="751.76" height="647.87"/><rect class="cls-1" x="572.51" y="226.65" width="767.81" height="664.76" rx="11.83"/><rect class="cls-1" x="586.59" y="827.5" width="201.03" height="50.12"/><rect class="cls-1" x="796.63" y="827.5" width="128.39" height="50.12"/><rect class="cls-1" x="934.03" y="827.5" width="55.19" height="51.24"/><rect class="cls-1" x="996.92" y="827.5" width="81.09" height="51.24"/><rect class="cls-1" x="1083.82" y="827.5" width="50.12" height="50.12"/><rect class="cls-1" x="1144.64" y="827.5" width="180.2" height="51.24"/><polygon class="cls-1" points="1003.98 848.33 1018.15 834.16 1032.05 848.05 1003.98 848.33"/><polygon class="cls-1" points="1042.9 848.33 1057.08 834.16 1070.96 848.05 1042.9 848.33"/><polygon class="cls-1" points="1003.98 857.39 1018.15 871.56 1032.05 857.67 1003.98 857.39"/><polygon class="cls-1" points="1042.9 857.39 1057.08 871.56 1070.96 857.67 1042.9 857.39"/><path class="cls-1" d="M588.09,891.41h732.43a0,0,0,0,1,0,0v50a9.2,9.2,0,0,1-9.2,9.2h-714a9.2,9.2,0,0,1-9.2-9.2v-50A0,0,0,0,1,588.09,891.41Z"/><polyline class="cls-1" points="588.09 913.84 680.44 913.84 680.44 950.63"/><polyline class="cls-1" points="1320.52 911.21 1290.11 911.21 1290.11 950.63"/><rect class="cls-1" x="1214.65" y="913.84" width="11.26" height="21.4"/><circle class="cls-1" cx="1095.09" cy="920.04" r="6.19"/><circle class="cls-1" cx="1063.13" cy="926.23" r="6.19"/><circle class="cls-1" cx="1037.46" cy="926.23" r="6.19"/><circle class="cls-1" cx="962.3" cy="926.23" r="6.19"/><circle class="cls-1" cx="936.63" cy="926.23" r="6.19"/><circle class="cls-1" cx="857.97" cy="926.23" r="6.19"/><circle class="cls-1" cx="832.3" cy="926.23" r="6.19"/><circle class="cls-1" cx="806.9" cy="926.23" r="6.19"/><circle class="cls-1" cx="781.24" cy="926.23" r="6.19"/><text class="cls-2" transform="translate(930.44 787.65)">SAMSUNG</text><circle class="cls-1" cx="631.49" cy="931.01" r="9.98"/></svg>