<svg id="Layer_3" data-name="Layer 3" xmlns="http://www.w3.org/2000/svg" viewBox="0 0 1920 1080"><defs><style>.cls-1{fill:none;stroke:#fff;stroke-miterlimit:10;stroke-width:2px;}.cls-2{font-size:17.65px;fill:#fff;font-family:RobotoMono-Bold, Roboto Mono;font-weight:700;}</style></defs><rect class="cls-1" x="657.93" y="360.11" width="627.31" height="474.15"/><rect class="cls-1" x="645.54" y="348.85" width="652.09" height="496.67" rx="7.69"/><path class="cls-1" d="M1404.12,335.39a29.11,29.11,0,0,0-25.39-23.54,23.41,23.41,0,0,1-4.52-1c-35.24-10.91-770-10.91-805.26,0a23.15,23.15,0,0,1-4.51,1,29.13,29.13,0,0,0-24.61,20.36,121.87,121.87,0,0,1-4.58,12.25c-19.13,44.33-19.13,474.63,0,519a120.07,120.07,0,0,1,4.58,12.25,29.09,29.09,0,0,0,27.81,20.53h.83c14.91,18.1,28.27,36.81,23.1,62.63h12.67V971.5h723.05v-16h11c-3.52-25.37,12.35-43.13,34.55-58.41a4.75,4.75,0,0,1,2.71-.84h0a29.09,29.09,0,0,0,28.59-23.71,69.23,69.23,0,0,1,2.12-7.87c11.86-37.33,11.86-484,0-521.36A69.23,69.23,0,0,1,1404.12,335.39Z"/><circle class="cls-1" cx="752.62" cy="919.19" r="14.73"/><circle class="cls-1" cx="788.2" cy="919.19" r="6.76"/><circle class="cls-1" cx="810.65" cy="919.19" r="6.76"/><circle class="cls-1" cx="912.01" cy="919.19" r="6.76"/><circle class="cls-1" cx="960" cy="919.19" r="6.76"/><circle class="cls-1" cx="982.25" cy="919.19" r="6.76"/><circle class="cls-1" cx="1004.5" cy="919.19" r="6.76"/><circle class="cls-1" cx="1026.75" cy="919.19" r="6.76"/><circle class="cls-1" cx="1049" cy="919.19" r="6.76"/><circle class="cls-1" cx="833.11" cy="919.19" r="6.76"/><circle class="cls-1" cx="857.83" cy="920.41" r="4.32"/><circle class="cls-1" cx="889.93" cy="920.41" r="4.32"/><text class="cls-2" transform="translate(942.26 886.41)">DAEWOO</text><rect class="cls-1" x="657.93" y="360.11" width="627.31" height="474.15" rx="24.47"/></svg>