<svg id="Layer_3" data-name="Layer 3" xmlns="http://www.w3.org/2000/svg" viewBox="0 0 1920 1080"><defs><style>.cls-1{fill:none;stroke:#fff;stroke-miterlimit:10;stroke-width:2px;}.cls-2{font-size:15.64px;fill:#fff;font-family:RobotoMono-Bold, Roboto Mono;font-weight:700;}</style></defs><rect class="cls-1" x="401.1" y="267.87" width="1106.53" height="630.13"/><rect class="cls-1" x="373.22" y="242.53" width="1162.28" height="680.81"/><circle class="cls-1" cx="1521.19" cy="777.96" r="6.95"/><circle class="cls-1" cx="1521.19" cy="816.14" r="6.95"/><circle class="cls-1" cx="1521.19" cy="834.32" r="6.95"/><line class="cls-1" x1="1340.05" y1="914.42" x2="1340.05" y2="923.34"/><line class="cls-1" x1="1359.2" y1="914.42" x2="1359.2" y2="923.34"/><line class="cls-1" x1="1378.34" y1="914.42" x2="1378.34" y2="923.34"/><line class="cls-1" x1="1397.49" y1="914.42" x2="1397.49" y2="923.34"/><line class="cls-1" x1="1416.64" y1="914.42" x2="1416.64" y2="923.34"/><line class="cls-1" x1="1435.78" y1="914.42" x2="1435.78" y2="923.34"/><line class="cls-1" x1="1454.93" y1="914.42" x2="1454.93" y2="923.34"/><line class="cls-1" x1="1474.07" y1="914.42" x2="1474.07" y2="923.34"/><line class="cls-1" x1="373.22" y1="848.35" x2="401.1" y2="848.35"/><line class="cls-1" x1="1507.25" y1="848.35" x2="1535.13" y2="848.35"/><line class="cls-1" x1="373.22" y1="322.77" x2="401.1" y2="322.77"/><line class="cls-1" x1="1507.25" y1="322.77" x2="1535.13" y2="322.77"/><line class="cls-1" x1="455.58" y1="242.53" x2="455.58" y2="267.87"/><line class="cls-1" x1="455.58" y1="898" x2="455.58" y2="923.34"/><line class="cls-1" x1="1452.37" y1="242.53" x2="1452.37" y2="267.87"/><line class="cls-1" x1="1452.37" y1="898" x2="1452.37" y2="923.34"/><text class="cls-2" transform="translate(939.68 917.36)">NEC</text></svg>